<?xml version="1.0" encoding="utf-8"?>
<!-- Generator: Adobe Illustrator 16.0.0, SVG Export Plug-In . SVG Version: 6.00 Build 0)  -->
<!DOCTYPE svg PUBLIC "-//W3C//DTD SVG 1.1//EN" "http://www.w3.org/Graphics/SVG/1.1/DTD/svg11.dtd">
<svg version="1.1" id="Layer_1" xmlns="http://www.w3.org/2000/svg" xmlns:xlink="http://www.w3.org/1999/xlink" x="0px" y="0px"
	 width="26px" height="37.411px" viewBox="0 0.111 26 37.411" enable-background="new 0 0.111 26 37.411" xml:space="preserve">
<path fill="#ED7430" d="M23.749,11.903c-0.001-1.405-0.258-2.708-0.832-3.913l-0.004-0.008c-0.767-1.638-2.159-3.144-4.427-4.455
	c-1.75-0.997-3.607-1.423-5.502-1.425C9.162,2.104,5.466,4.035,3.458,7.485L3.457,7.487c-0.842,1.441-1.204,2.991-1.206,4.673
	c-0.013,3.72,1.867,8.062,4.294,12.255c2.084,3.618,4.539,7.118,6.431,10.151c1.87-3.001,4.331-6.546,6.432-10.226
	C21.854,20.076,23.764,15.638,23.749,11.903z"/>
<path fill="#FFFFFF" d="M24.725,7.138L24.725,7.138c0-0.003,0-0.005-0.002-0.007c-0.966-2.069-2.703-3.876-5.236-5.336l-0.004-0.002
	c-2.072-1.185-4.301-1.691-6.499-1.69C8.497,0.102,4.122,2.375,1.729,6.479C0.69,8.252,0.249,10.19,0.25,12.161
	c0.013,4.375,2.081,8.935,4.562,13.254c2.487,4.312,5.431,8.389,7.309,11.594c0.228,0.388,0.69,0.576,1.125,0.459
	c0.266-0.072,0.47-0.254,0.6-0.482v0.001c1.842-3.141,4.795-7.271,7.299-11.654c2.498-4.39,4.592-9.035,4.604-13.428
	C25.75,10.256,25.441,8.642,24.725,7.138z M6.545,24.415C4.118,20.222,2.238,15.88,2.251,12.16c0.002-1.682,0.364-3.232,1.206-4.673
	l0.001-0.002c2.008-3.451,5.704-5.381,9.526-5.382c1.895,0.001,3.752,0.428,5.502,1.425c2.268,1.312,3.66,2.817,4.427,4.455
	l0.004,0.008c0.574,1.205,0.831,2.507,0.832,3.913c0.015,3.734-1.896,8.173-4.341,12.437c-2.102,3.68-4.562,7.225-6.432,10.226
	C11.084,31.533,8.63,28.033,6.545,24.415z"/>
<g>
	<path fill="#FFFFFF" d="M1.73,43.875L1.73,43.875L1.73,43.875z"/>
	<polygon fill="#FFFFFF" points="24.723,44.527 24.723,44.527 24.727,44.535 	"/>
	<path fill="#FFFFFF" d="M24.723,44.527c-0.966-2.066-2.703-3.875-5.236-5.334l-0.004-0.002c-2.071-1.185-4.301-1.691-6.499-1.69
		C8.496,37.5,4.122,39.773,1.73,43.875c-1.039,1.773-1.481,3.711-1.479,5.684c0.013,4.375,2.081,8.935,4.562,13.254
		c2.487,4.312,5.431,8.39,7.309,11.593c0.228,0.389,0.69,0.577,1.125,0.459c0.265-0.072,0.47-0.255,0.599-0.48h0.002
		c1.84-3.139,4.793-7.27,7.297-11.651c2.498-4.392,4.592-9.035,4.604-13.428C25.75,47.652,25.441,46.035,24.723,44.527z"/>
</g>
</svg>
