<?xml version="1.0" encoding="utf-8"?>
<!-- Generator: Adobe Illustrator 16.0.0, SVG Export Plug-In . SVG Version: 6.00 Build 0)  -->
<!DOCTYPE svg PUBLIC "-//W3C//DTD SVG 1.1//EN" "http://www.w3.org/Graphics/SVG/1.1/DTD/svg11.dtd">
<svg version="1.1" id="Layer_1" xmlns="http://www.w3.org/2000/svg" xmlns:xlink="http://www.w3.org/1999/xlink" x="0px" y="0px"
	 width="55.8px" height="118.3px" viewBox="0 0 55.8 118.3" enable-background="new 0 0 55.8 118.3" xml:space="preserve">
<g>
	<g>
		<path fill="#61aa45" d="M0.1,0.8c12.7,12,24.2,25.3,32.5,40.7c7.2,13.2,12.4,36.6-5.7,43.6c-2.7,1.1-5.6,1.7-8.6,1.7
			c-5,0-8.1-5.4-4.4-9.5c2.4-2.6,7.2-2,10.1-0.7c3.4,1.5,4.9,5.9,5.9,9.2c2.5,8.4,1.2,17.9-4.8,24.4c-6.1,6.6-16.6,8.8-24.4,4.2
			C0,114.1-0.6,115,0,115.4c7.5,4.4,17.3,3,23.8-2.7c7.7-6.7,9.3-16.2,7.3-25.9c-1.5-7.3-5.9-13.1-13.9-12.1
			c-5.6,0.7-8.1,7.4-4.1,11.5c4.2,4.3,13.7,0.5,17.9-1.9c8.2-4.6,9.8-15.6,9-24C39,48.5,32.1,37.6,25.5,28C18.4,17.8,9.9,8.6,0.8,0
			C0.3-0.4-0.4,0.3,0.1,0.8L0.1,0.8z"/>
	</g>
</g>
</svg>
