<?xml version="1.0" encoding="utf-8"?>
<!-- Generator: Adobe Illustrator 16.0.0, SVG Export Plug-In . SVG Version: 6.00 Build 0)  -->
<!DOCTYPE svg PUBLIC "-//W3C//DTD SVG 1.1//EN" "http://www.w3.org/Graphics/SVG/1.1/DTD/svg11.dtd">
<svg version="1.1" id="Layer_1" xmlns="http://www.w3.org/2000/svg" xmlns:xlink="http://www.w3.org/1999/xlink" x="0px" y="0px"
	 width="55.8px" height="118.3px" viewBox="0 0 55.8 118.3" enable-background="new 0 0 55.8 118.3" xml:space="preserve">
<path fill="none" stroke="#61aa45" stroke-miterlimit="10" d="M53.8,1c0,0-20.1,3.3-36.9,29.1c-14.2,21.9-24.7,86-6.1,85.6
	c0,0,7.3-0.9,4.9-8.4c-0.4-1.4-1.3-1.4-1.8-1.4c-2.1,0.2-3.8,11.7,3.9,10.7c8.7-1.1,4.8-13.2,2.1-8.4c-2.8,4.9,0.3,9.2,4.7,9
	c5.1-0.3,5.8-9.9,2.6-8.2c-2.9,1.4-1.3,9,4.8,7.9c5.7-1,3.6-9.8,1.4-7s-1,8.3,4.7,7.2s2.5-8.5,1.1-6.5s-1.5,6.2,3.2,6.2
	c3.2,0,4.1-2.9,4.1-2.9"/>
</svg>
