<?xml version="1.0" encoding="utf-8"?>
<!-- Generator: Adobe Illustrator 16.0.0, SVG Export Plug-In . SVG Version: 6.00 Build 0)  -->
<!DOCTYPE svg PUBLIC "-//W3C//DTD SVG 1.1//EN" "http://www.w3.org/Graphics/SVG/1.1/DTD/svg11.dtd">
<svg version="1.1" id="Asphalt_x5F_Road" xmlns="http://www.w3.org/2000/svg" xmlns:xlink="http://www.w3.org/1999/xlink" x="0px"
	 y="0px" width="71.4px" height="656px" viewBox="111.299 0 71.4 656" enable-background="new 111.299 0 71.4 656"
	 xml:space="preserve">
<path fill="#222629" d="M147.799,571c0,2-0.199,3-0.199,4.5c-0.4,2.8-0.9,5.5-1.801,8.2c-3.5,10.6-12.6,19.3-23.199,22.6
	c-10.7,3.2-23,1.5-32-5.399C81.4,594.3,76,583.2,75.9,572V329.1c0.7-20.3-9.4-42.2-26.2-54.899C33,261,10,256.7-10.4,262.6
	c-20.5,5.7-37.7,21.5-45,41.5c-2,4.9-3.1,10.2-3.8,15.4c-0.4,2.6-0.4,5.3-0.5,7.9c0,2.199,0,4.1,0,6.199v588.9h31.9v-589
	c0-2,0-4.1,0-6c0.1-1.4,0.1-2.8,0.3-4.2c0.4-2.8,0.9-5.5,2-8.1c3.8-10.5,13.1-19,23.8-22c10.8-3.1,23-0.8,31.8,6.2
	c9,7.1,14.2,17.6,13.9,29.699V572c-0.1,21.1,10.4,42.2,27.6,54.6c17,12.9,40.1,16.4,60.3,10.2c20.3-6.3,37.101-22.5,43.899-42.7
	c1.801-5,2.801-10.199,3.4-15.5c0.1-2.5,0.301-5.6,0.301-7.6V-75.6c-11.701,0-24.101,0-31.9,0V571H147.799z M-43.2,903v12.1h-1.1
	V903H-43.2z M-43.2,886.8V898.9h-1.1V886.8H-43.2z M-43.2,870.6V882.7h-1.1V870.6H-43.2z M-43.2,854.4v12.1h-1.1v-12.1H-43.2z
	 M-43.2,838.2v12.1h-1.1v-12.1H-43.2z M-43.2,822v12.1h-1.1V822H-43.2z M-43.2,805.8V817.9h-1.1V805.8H-43.2z M-43.2,789.6V801.7
	h-1.1V789.6H-43.2z M-43.2,773.4v12.1h-1.1v-12.1H-43.2z M-43.2,757.2v12.1h-1.1v-12.1H-43.2z M-43.2,741v12.1h-1.1V741H-43.2z
	 M-43.2,724.9V737h-1.1v-12.1H-43.2z M-43.2,708.7v12.1h-1.1v-12.1H-43.2z M-43.2,692.5v12.1h-1.1v-12.1H-43.2z M-43.2,676.3V688.4
	h-1.1V676.3H-43.2z M-43.2,660.1V672.2h-1.1V660.1H-43.2z M-43.2,643.9V656h-1.1v-12.1H-43.2z M-43.2,627v12.1h-1.1V627H-43.2z
	 M-43.2,610.8V622.9h-1.1V610.8H-43.2z M-43.2,594.6V606.7h-1.1V594.6H-43.2z M-43.2,578.4v12.1h-1.1v-12.1H-43.2z M-43.2,562.2
	v12.1h-1.1v-12.1H-43.2z M-43.2,546v12.1h-1.1V546H-43.2z M-43.2,529.8V541.9h-1.1V529.8H-43.2z M-43.2,513.6V525.7h-1.1V513.6
	H-43.2z M-43.2,497.4v12.1h-1.1v-12.1H-43.2z M-43.2,481.2v12.1h-1.1v-12.1H-43.2z M-43.2,465v12.1h-1.1V465H-43.2z M-43.2,448.9
	V461h-1.1v-12.1H-43.2z M-43.2,432.7v12.1h-1.1v-12.1H-43.2z M-43.2,416.5v12.1h-1.1v-12.1H-43.2z M-43.2,400.3V412.4h-1.1V400.3
	H-43.2z M-43.2,384.1V396.2h-1.1V384.1H-43.2z M-43.2,367.9V380h-1.1v-12.1H-43.2z M-43.2,351.7v12.1h-1.1v-12.1H-43.2z
	 M-43.2,335.5v12.1h-1.1v-12.1H-43.2z M-42.4,319.5c-0.8,3.9-0.7,8-0.7,12h-1.1c0-4,0-8.2,0.7-12.2L-42.4,319.5z M-37.5,304.3
	c-0.9,1.8-1.8,3.601-2.4,5.5c-0.8,1.9-1.3,3.8-1.8,5.7l-1.1-0.3c0.5-2,1-4,1.8-5.9c0.6-2,1.6-3.8,2.5-5.6L-37.5,304.3z M40.3,286.4
	c1.7,1.2,3.1,2.7,4.6,4l-0.8,0.8c-1.5-1.3-2.9-2.8-4.5-3.9c-1.6-1.2-3.2-2.4-4.9-3.4l0.6-1C37,283.9,38.6,285.1,40.3,286.4z
	 M31.6,280.9l-0.5,1c-3.6-1.8-7.4-3.2-11.3-4.1l0.3-1.1C24.1,277.7,28,279.1,31.6,280.9z M16.1,276l-0.2,1.1c-3.9-0.7-8-0.7-12-0.4
	l-0.1-1.1C8,275.3,12.1,275.3,16.1,276z M-12,279.3c1.9-0.6,3.8-1.5,5.8-2s4-1.1,6-1.3l0.2,1.1c-2,0.2-3.9,0.8-5.9,1.3
	c-2,0.4-3.8,1.3-5.7,1.9L-12,279.3z M-25.9,287.9c3.1-2.6,6.5-5,10.2-6.8l0.5,1c-3.6,1.8-6.9,4.1-10,6.6L-25.9,287.9z M-35.5,300.8
	l-1-0.6c2.1-3.5,4.8-6.7,7.6-9.6l0.8,0.8C-30.8,294.3-33.5,297.4-35.5,300.8z M46.8,294.1l0.8-0.7c2.7,3.1,5,6.5,6.9,10.1l-1,0.5
	C51.7,300.5,49.5,297.1,46.8,294.1z M55.3,307.6l1-0.399c1.5,3.8,2.8,7.7,3.4,11.8l-1.1,0.2C58,315.2,56.8,311.3,55.3,307.6z
	 M59.4,335.2V329.1c0-2-0.2-4-0.2-6l1.1-0.1c0.1,2,0.3,4.1,0.2,6.1v6.101H59.4z M59.4,351.4V339.3h1.1V351.4H59.4z M59.4,367.6
	v-12.1h1.1v12.1H59.4z M59.4,383.8v-12.1h1.1v12.1H59.4z M59.4,400v-12.1h1.1V400H59.4z M59.4,416.1V404h1.1v12.1H59.4z M59.4,432.3
	v-12.1h1.1v12.1H59.4z M59.4,448.5v-12.1h1.1v12.1H59.4z M59.4,464.7V452.6h1.1V464.7H59.4z M59.4,480.9V468.8h1.1V480.9H59.4z
	 M59.4,497.1V485h1.1v12.1H59.4z M59.4,513.3v-12.1h1.1v12.1H59.4z M59.4,529.5v-12.1h1.1v12.1H59.4z M59.4,545.7V533.6h1.1V545.7
	H59.4z M59.4,561.9V549.8h1.1V561.9H59.4z M59.4,572v-6.1h1.1v6.1c0.1,2,0.1,4,0.4,6l-1.1,0.1C59.6,576.1,59.6,574,59.4,572z
	 M60.4,582.1l1.1-0.199c0.8,3.899,2,7.8,3.7,11.399l-1,0.5C62.5,590.1,61.3,586.1,60.4,582.1z M66,597.5l1-0.5c2,3.4,4.3,6.8,7,9.7
	l-0.8,0.8C70.4,604.4,68.1,601,66,597.5z M105.2,624l0.1-1.1c4,0.5,8,0.5,12,0.199l0.101,1.101C113.4,624.5,109.299,624.5,105.2,624
	z M133.2,619.9c-1.8,0.899-3.8,1.5-5.699,2.199c-2,0.5-3.9,1.101-6,1.4l-0.201-1.1c2-0.301,3.9-0.9,5.801-1.4
	c1.9-0.7,3.8-1.3,5.6-2.2L133.2,619.9z M101.4,622.2l-0.2,1.1c-4-0.899-7.9-2.1-11.6-3.899l0.5-1C93.6,620.2,97.5,621.3,101.4,622.2
	z M146.799,611c-3,2.8-6.399,5-10,7.1l-0.5-1c3.4-2,6.801-4.199,9.801-7L146.799,611z M81.5,613.3c1.6,1.3,3.3,2.2,5,3.3l-0.6,1
	c-1.7-1.1-3.5-2.1-5.1-3.399c-1.7-1.2-3.2-2.5-4.7-3.9l0.8-0.8C78.3,610.8,79.8,612.1,81.5,613.3z M157.1,598.4
	c-2,3.6-4.5,6.8-7.4,9.8l-0.8-0.8c2.8-2.9,5.2-6.101,7.2-9.601L157.1,598.4z M163.1,583.2c-0.6,2-0.9,4-1.7,5.899
	c-0.7,1.9-1.399,3.9-2.3,5.7l-1-0.5c0.9-1.8,1.6-3.7,2.3-5.5c0.8-1.8,1.101-3.899,1.601-5.8L163.1,583.2z M164.299,567
	c0,4,0,8.1-0.5,12.2l-1.1-0.2c0.6-4,0.5-8,0.5-12H164.299z M164.299,550.8V562.9h-1.1V550.8H164.299z M164.299,534.6V546.7h-1.1
	V534.6H164.299z M164.299,518.4v12.1h-1.1v-12.1H164.299z M164.299,502.2v12.1h-1.1v-12.1H164.299L164.299,502.2z M164.299,486v12.1
	h-1.1V486H164.299z M164.299,469.8V482h-1.1v-12.1h1.1V469.8z M164.299,453.6V465.7h-1.1V453.6H164.299z M164.299,437.4v12.1h-1.1
	v-12.1H164.299z M164.299,421.2v12.1h-1.1v-12.1H164.299z M164.299,405.1V417.2h-1.1V405.1H164.299z M164.299,388.9V401h-1.1v-12.1
	H164.299z M164.299,372.7v12.1h-1.1v-12.1H164.299z M164.299,356.5v12.1h-1.1v-12.1H164.299z M164.299,340.3V352.4h-1.1V340.3
	H164.299z M164.299,324.1V336.2h-1.1V324.1H164.299z M164.299,307.9V320h-1.1v-12.1H164.299z M164.299,291.7v12.1h-1.1v-12.1
	H164.299z M164.299,275.5v12.1h-1.1v-12.1H164.299z M164.299,259.3v12.1h-1.1v-12.1H164.299z M164.299,242.9V255h-1.1v-12.1H164.299
	z M164.299,226.7v12.1h-1.1v-12.1H164.299z M164.299,210.5v12.1h-1.1v-12.1H164.299z M164.299,194.3v12.1h-1.1v-12.1H164.299z
	 M164.299,178.1v12.1h-1.1v-12.1H164.299z M164.299,161.9V174h-1.1v-12.1H164.299z M164.299,145.7v12.1h-1.1v-12.1H164.299z
	 M164.299,129.5v12.1h-1.1v-12.1H164.299z M164.299,113.3v12.1h-1.1v-12.1H164.299z M164.299,97.1v12.1h-1.1V97.1H164.299z
	 M164.299,81v12.1h-1.1V81H164.299z M164.299,64.8v12.1h-1.1V64.8H164.299z M164.299,48.6v12.1h-1.1V48.6H164.299z M164.299,32.4
	v12.1h-1.1V32.4H164.299z M164.299,16.2v12.1h-1.1V16.2H164.299z M164.299,12.1h-1.1V0h1.1V12.1z"/>
<g>
	<rect x="-44.3" y="351.7" fill="#434445" width="1.1" height="12.1"/>
	<rect x="-44.3" y="367.9" fill="#434445" width="1.1" height="12.1"/>
	<rect x="-44.3" y="400.3" fill="#434445" width="1.1" height="12.101"/>
	<rect x="-44.3" y="384.1" fill="#434445" width="1.1" height="12.101"/>
	<path fill="#434445" d="M-43.5,319.3c-0.8,4-0.7,8.2-0.7,12.2h1.1c0-4.1,0-8.1,0.7-12L-43.5,319.3z"/>
	<rect x="-44.3" y="335.5" fill="#434445" width="1.1" height="12.1"/>
	<rect x="-44.3" y="416.5" fill="#434445" width="1.1" height="12.1"/>
	<rect x="-44.3" y="465" fill="#434445" width="1.1" height="12.1"/>
	<rect x="-44.3" y="481.2" fill="#434445" width="1.1" height="12.1"/>
	<rect x="-44.3" y="497.4" fill="#434445" width="1.1" height="12.1"/>
	<rect x="-44.3" y="432.7" fill="#434445" width="1.1" height="12.1"/>
	<rect x="-44.3" y="448.9" fill="#434445" width="1.1" height="12.1"/>
	<path fill="#434445" d="M-37.5,304.3l-1-0.5c-0.9,1.8-1.8,3.7-2.5,5.601c-0.8,1.899-1.3,3.899-1.8,5.899l1.1,0.3
		c0.4-2,1-3.899,1.8-5.699C-39.3,307.9-38.3,306.1-37.5,304.3z"/>
	<rect x="59.4" y="339.2" fill="#434445" width="1.1" height="12.1"/>
	<path fill="#434445" d="M44.9,290.4c-1.6-1.3-2.9-2.9-4.6-4c-1.6-1.2-3.3-2.5-5.1-3.5l-0.6,1c1.8,1,3.4,2.2,4.9,3.4
		c1.7,1.1,3,2.6,4.5,3.9L44.9,290.4z"/>
	<rect x="59.4" y="355.4" fill="#434445" width="1.1" height="12.1"/>
	<path fill="#434445" d="M59.4,335.2h1.1V329.1c0-2-0.2-4.1-0.2-6.1l-1.1,0.1c0.1,2,0.3,4,0.2,6V335.2z"/>
	<rect x="59.4" y="371.6" fill="#434445" width="1.1" height="12.101"/>
	<rect x="59.4" y="387.8" fill="#434445" width="1.1" height="12.101"/>
	<path fill="#434445" d="M59.8,318.9c-0.6-4-1.9-8-3.4-11.801l-1,0.4c1.5,3.7,2.7,7.5,3.3,11.5L59.8,318.9z"/>
	<rect x="-44.3" y="513.6" fill="#434445" width="1.1" height="12.101"/>
	<path fill="#434445" d="M54.6,303.5c-1.9-3.6-4.2-7-6.9-10.1l-0.8,0.7c2.7,3,4.9,6.4,6.8,9.9L54.6,303.5z"/>
	<path fill="#434445" d="M16.1,276c-4-0.7-8.2-0.7-12.2-0.5l0.1,1.1c4-0.3,8-0.2,12,0.4L16.1,276z"/>
	<path fill="#434445" d="M31.6,280.9c-3.6-1.9-7.5-3.2-11.5-4.2l-0.3,1.1c3.9,0.9,7.7,2.2,11.3,4.1L31.6,280.9z"/>
	<path fill="#434445" d="M-12,279.3l0.4,1c1.9-0.6,3.7-1.5,5.7-1.9c1.9-0.5,3.9-1.1,5.9-1.3l-0.2-1.1c-2,0.2-4,0.8-6,1.3
		S-10,278.7-12,279.3z"/>
	<path fill="#434445" d="M-25.1,288.7c3.1-2.6,6.4-4.9,10-6.6l-0.5-1c-3.7,1.8-7.1,4.2-10.2,6.8L-25.1,288.7z"/>
	<path fill="#434445" d="M-35.5,300.8c2-3.5,4.7-6.5,7.4-9.4l-0.8-0.8c-2.8,3-5.5,6.1-7.6,9.6L-35.5,300.8z"/>
	<rect x="-44.3" y="838.2" fill="#434445" width="1.1" height="12.1"/>
	<rect x="59.4" y="404" fill="#434445" width="1.1" height="12.1"/>
	<rect x="-44.3" y="822" fill="#434445" width="1.1" height="12.1"/>
	<rect x="-44.3" y="757.2" fill="#434445" width="1.1" height="12.1"/>
	<rect x="-44.3" y="854.4" fill="#434445" width="1.1" height="12.1"/>
	<rect x="-44.3" y="789.6" fill="#434445" width="1.1" height="12.101"/>
	<rect x="-44.3" y="773.4" fill="#434445" width="1.1" height="12.1"/>
	<rect x="-44.3" y="870.6" fill="#434445" width="1.1" height="12.101"/>
	<path fill="#434445" d="M146.6-75.6V571c0,2-0.2,2.9-0.2,4.4c-0.399,2.699-0.8,5.399-1.8,7.899c-3.4,10.3-12.2,18.7-22.5,21.9
		c-10.4,3.1-22.301,1.399-31-5.2c-8.9-6.4-14.2-17.1-14.2-28V329.1c0.7-20.6-9.6-42.899-26.7-55.8c-17-13.4-40.3-17.9-61.1-11.9
		c-20.8,5.8-38.4,21.9-45.7,42.2c-2,5-3.1,10.301-3.8,15.7c-0.4,2.7-0.4,5.4-0.5,8c0,2.2,0,4.101,0,6.2v588.9h1.1V333.5
		c0-2.1,0-4,0-6.2c0.2-2.6,0.1-5.3,0.5-7.899c0.7-5.2,1.8-10.5,3.8-15.4c7.2-20,24.5-35.8,45-41.5C10,256.7,33,261,49.7,274.2
		c16.8,12.6,26.9,34.5,26.2,54.899V572c0,11.3,5.5,22.3,14.7,28.9c8.9,6.899,21.3,8.6,32,5.399c10.699-3.3,19.699-12,23.199-22.6
		c1-2.601,1.5-5.4,1.801-8.2c0-1.5,0.199-2.5,0.199-4.5V-75.6v-4.7h-1.1v4.7H146.6z"/>
	<rect x="-44.3" y="886.8" fill="#434445" width="1.1" height="12.101"/>
	<rect x="-44.3" y="903" fill="#434445" width="1.1" height="12.1"/>
	<path fill="#434445" d="M179.6,571c0,2-0.2,5.1-0.301,7.6c-0.6,5.301-1.6,10.5-3.399,15.5c-6.8,20.2-23.601,36.301-43.899,42.7
		c-20.201,6.2-43.4,2.7-60.3-10.2C54.5,614.2,44,593.1,44.1,572V329.1c0.3-12.1-5-22.699-13.9-29.699c-8.8-7-21-9.3-31.8-6.2
		c-10.7,3-20.1,11.399-23.8,22c-1.1,2.6-1.6,5.399-2,8.1c-0.2,1.4-0.1,2.8-0.3,4.2c0,1.8,0,4,0,6v588.9h1.1V333.5c0-2,0-4.2,0-6
		c0.1-1.4,0-2.7,0.3-4.1c0.4-2.7,0.9-5.4,1.9-7.9c3.6-10.2,12.7-18.4,23.1-21.3c10.5-3,22.3-0.8,30.8,6c8.7,6.899,13.8,17,13.5,28.8
		v243c-0.1,21.5,10.6,42.9,28.1,55.5c17.3,13.1,40.8,16.7,61.4,10.4c20.6-6.4,37.699-22.9,44.6-43.4c1.8-5.1,2.9-10.4,3.5-15.7
		c0.1-2.5,0.3-5.7,0.3-7.7V-75.6v-4.7h-1.101v4.7V571H179.6z"/>
	<rect x="-44.3" y="724.9" fill="#434445" width="1.1" height="12.1"/>
	<rect x="-44.3" y="594.6" fill="#434445" width="1.1" height="12.101"/>
	<rect x="-44.3" y="627" fill="#434445" width="1.1" height="12.1"/>
	<rect x="-44.3" y="578.4" fill="#434445" width="1.1" height="12.1"/>
	<rect x="-44.3" y="610.8" fill="#434445" width="1.1" height="12.101"/>
	<rect x="-44.3" y="546" fill="#434445" width="1.1" height="12.1"/>
	<rect x="-44.3" y="741" fill="#434445" width="1.1" height="12.1"/>
	<rect x="-44.3" y="562.2" fill="#434445" width="1.1" height="12.1"/>
	<rect x="-44.3" y="708.7" fill="#434445" width="1.1" height="12.1"/>
	<rect x="-44.3" y="529.8" fill="#434445" width="1.1" height="12.101"/>
	<rect x="-44.3" y="643.9" fill="#434445" width="1.1" height="12.1"/>
	<rect x="-44.3" y="692.5" fill="#434445" width="1.1" height="12.1"/>
	<rect x="-44.3" y="660.1" fill="#434445" width="1.1" height="12.101"/>
	<rect x="-44.3" y="676.3" fill="#434445" width="1.1" height="12.101"/>
	<rect x="-44.3" y="805.8" fill="#434445" width="1.1" height="12.101"/>
	<rect x="163.1" y="259.3" fill="#434445" width="1.1" height="12.1"/>
	<rect x="163.1" y="307.9" fill="#434445" width="1.1" height="12.1"/>
	<rect x="163.1" y="291.7" fill="#434445" width="1.1" height="12.1"/>
	<rect x="163.1" y="275.5" fill="#434445" width="1.1" height="12.1"/>
	<rect x="163.1" y="226.7" fill="#434445" width="1.1" height="12.1"/>
	<rect x="163.1" y="242.9" fill="#434445" width="1.1" height="12.1"/>
	<rect x="163.1" y="372.7" fill="#434445" width="1.1" height="12.1"/>
	<rect x="163.1" y="210.5" fill="#434445" width="1.1" height="12.1"/>
	<rect x="163.1" y="388.9" fill="#434445" width="1.1" height="12.1"/>
	<rect x="163.1" y="324.1" fill="#434445" width="1.1" height="12.101"/>
	<rect x="163.1" y="405.1" fill="#434445" width="1.1" height="12.101"/>
	<rect x="163.1" y="340.3" fill="#434445" width="1.1" height="12.101"/>
	<rect x="163.1" y="356.5" fill="#434445" width="1.1" height="12.1"/>
	<rect x="163.1" y="48.6" fill="#434445" width="1.1" height="12.1"/>
	<rect x="163.1" y="32.4" fill="#434445" width="1.1" height="12.1"/>
	<rect x="59.4" y="420.2" fill="#434445" width="1.1" height="12.1"/>
	<rect x="163.1" y="64.8" fill="#434445" width="1.1" height="12.1"/>
	<rect x="163.1" y="16.2" fill="#434445" width="1.1" height="12.1"/>
	<rect x="163.1" y="81" fill="#434445" width="1.1" height="12.1"/>
	<rect x="163.1" fill="#434445" width="1.1" height="12.1"/>
	<rect x="163.1" y="421.2" fill="#434445" width="1.1" height="12.1"/>
	<rect x="163.1" y="97.1" fill="#434445" width="1.1" height="12.1"/>
	<rect x="163.1" y="161.9" fill="#434445" width="1.1" height="12.1"/>
	<rect x="163.1" y="178.1" fill="#434445" width="1.1" height="12.1"/>
	<rect x="163.1" y="145.7" fill="#434445" width="1.1" height="12.1"/>
	<rect x="163.1" y="113.3" fill="#434445" width="1.1" height="12.1"/>
	<rect x="163.1" y="129.5" fill="#434445" width="1.1" height="12.1"/>
	<rect x="163.1" y="194.3" fill="#434445" width="1.1" height="12.1"/>
	<path fill="#434445" d="M59.8,578.1l1.1-0.1c-0.2-2-0.2-4-0.4-6v-6.1h-1.1v6.1C59.6,574,59.6,576.1,59.8,578.1z"/>
	<path fill="#434445" d="M65.2,593.3c-1.7-3.6-2.9-7.5-3.7-11.399l-1.1,0.199c0.9,4,2,7.9,3.8,11.601L65.2,593.3z"/>
	<rect x="59.4" y="549.7" fill="#434445" width="1.1" height="12.1"/>
	<path fill="#434445" d="M105.2,624c4.1,0.5,8.2,0.5,12.2,0.2l-0.101-1.101c-4,0.301-8,0.4-12-0.199L105.2,624z"/>
	<rect x="59.4" y="533.5" fill="#434445" width="1.1" height="12.1"/>
	<path fill="#434445" d="M74,606.6c-2.8-2.899-5-6.3-7-9.699l-1,0.5c2.1,3.5,4.3,7,7.2,9.899L74,606.6z"/>
	<path fill="#434445" d="M133.2,619.9l-0.5-1c-1.8,0.899-3.699,1.399-5.6,2.199c-1.9,0.5-3.9,1.101-5.801,1.4l0.201,1.1
		c2-0.3,4-1,6-1.399C129.4,621.3,131.299,620.8,133.2,619.9z"/>
	<rect x="59.4" y="452.6" fill="#434445" width="1.1" height="12.101"/>
	<rect x="59.4" y="436.4" fill="#434445" width="1.1" height="12.1"/>
	<rect x="59.4" y="468.8" fill="#434445" width="1.1" height="12.101"/>
	<rect x="59.4" y="517.3" fill="#434445" width="1.1" height="12.101"/>
	<rect x="59.4" y="501.1" fill="#434445" width="1.1" height="12.101"/>
	<rect x="59.4" y="485" fill="#434445" width="1.1" height="12.1"/>
	<rect x="163.1" y="486" fill="#434445" width="1.1" height="12.1"/>
	<path fill="#434445" d="M89.6,619.4c3.699,1.8,7.6,3,11.6,3.899l0.2-1.1c-3.899-0.9-7.8-2.101-11.3-3.8L89.6,619.4z"/>
	<rect x="163.1" y="437.4" fill="#434445" width="1.1" height="12.1"/>
	<rect x="163.1" y="518.4" fill="#434445" width="1.1" height="12.1"/>
	<rect x="163.1" y="502.2" fill="#434445" width="1.1" height="12.1"/>
	<rect x="163.1" y="453.6" fill="#434445" width="1.1" height="12.101"/>
	<rect x="163.1" y="469.8" fill="#434445" width="1.1" height="12.101"/>
	<rect x="163.1" y="534.6" fill="#434445" width="1.1" height="12.101"/>
	<path fill="#434445" d="M76.1,610.3c1.5,1.4,3,2.7,4.7,3.9c1.6,1.3,3.4,2.3,5.1,3.399l0.6-1c-1.7-1-3.5-2-5-3.3
		c-1.6-1.1-3.2-2.5-4.6-3.8L76.1,610.3z"/>
	<path fill="#434445" d="M136.9,618.1c3.5-2.1,7-4.3,10-7.1l-0.8-0.8c-2.9,2.7-6.301,4.899-9.801,7L136.9,618.1z"/>
	<path fill="#434445" d="M149,607.4l0.799,0.8c2.801-3,5.301-6.2,7.4-9.8l-1-0.601C154.2,601.3,151.7,604.5,149,607.4z"/>
	<path fill="#434445" d="M164.299,567h-1.1c0,4.1,0,8.1-0.5,12l1.1,0.2C164.299,575.1,164.299,571,164.299,567z"/>
	<path fill="#434445" d="M163.1,583.2L162,583c-0.601,1.9-0.9,3.9-1.601,5.8c-0.7,1.9-1.399,3.8-2.3,5.5l1,0.5
		c1-1.8,1.699-3.7,2.3-5.7C162.2,587.2,162.5,585.1,163.1,583.2z"/>
	<rect x="163.1" y="550.8" fill="#434445" width="1.1" height="12.101"/>
</g>
</svg>
