<?xml version="1.0" encoding="utf-8"?>
<!-- Generator: Adobe Illustrator 16.0.0, SVG Export Plug-In . SVG Version: 6.00 Build 0)  -->
<!DOCTYPE svg PUBLIC "-//W3C//DTD SVG 1.1//EN" "http://www.w3.org/Graphics/SVG/1.1/DTD/svg11.dtd">
<svg version="1.1" id="Asphalt_x5F_Road" xmlns="http://www.w3.org/2000/svg" xmlns:xlink="http://www.w3.org/1999/xlink" x="0px"
	 y="0px" width="34.1px" height="65px" viewBox="0 0 34.1 65" enable-background="new 0 0 34.1 65" xml:space="preserve">
<path fill="#222629" d="M1.1,360.5c0,2-0.2,3-0.2,4.5c-0.4,2.8-0.9,5.5-1.8,8.2c-3.5,10.6-12.6,19.3-23.2,22.6
	c-10.7,3.2-23,1.5-32-5.4c-9.2-6.6-14.6-17.7-14.7-28.9V118.6c0.7-20.3-9.4-42.2-26.2-54.9c-16.7-13.2-39.7-17.6-60.1-11.7
	c-20.5,5.7-37.7,21.5-45,41.5c-2,4.9-3.1,10.2-3.8,15.4c-0.4,2.6-0.4,5.3-0.5,7.9c0,2.2,0,4.1,0,6.2v588.9h31.9V123c0-2,0-4.1,0-6
	c0.1-1.4,0.1-2.8,0.3-4.2c0.4-2.8,0.9-5.5,2-8.1c3.8-10.5,13.1-19,23.8-22c10.8-3.1,23-0.8,31.8,6.2c9,7.1,14.2,17.6,13.9,29.7
	v242.9c-0.1,21.1,10.4,42.2,27.6,54.6c17,12.9,40.1,16.4,60.3,10.2c20.3-6.3,37.1-22.5,43.9-42.7c1.8-5,2.8-10.2,3.4-15.5
	c0.1-2.5,0.3-5.6,0.3-7.6v-646.7c-11.7,0-24.1,0-31.9,0V360.5z M-189.8,692.5v12.1h-1.1v-12.1H-189.8z M-189.8,676.3v12.1h-1.1
	v-12.1H-189.8z M-189.8,660.1v12.1h-1.1v-12.1H-189.8z M-189.8,643.9V656h-1.1v-12.1H-189.8z M-189.8,627.7v12.1h-1.1v-12.1H-189.8z
	 M-189.8,611.5v12.1h-1.1v-12.1H-189.8z M-189.8,595.3v12.1h-1.1v-12.1H-189.8z M-189.8,579.1v12.1h-1.1v-12.1H-189.8z
	 M-189.8,562.9v12.1h-1.1v-12.1H-189.8z M-189.8,546.8v12.1h-1.1v-12.1H-189.8z M-189.8,530.6v12.1h-1.1v-12.1H-189.8z
	 M-189.8,514.4v12.1h-1.1v-12.1H-189.8z M-189.8,498.2v12.1h-1.1v-12.1H-189.8z M-189.8,482v12.1h-1.1V482H-189.8z M-189.8,465.8
	v12.1h-1.1v-12.1H-189.8z M-189.8,449.6v12.1h-1.1v-12.1H-189.8z M-189.8,433.4v12.1h-1.1v-12.1H-189.8z M-189.8,416.5v12.1h-1.1
	v-12.1H-189.8z M-189.8,400.3v12.1h-1.1v-12.1H-189.8z M-189.8,384.1v12.1h-1.1v-12.1H-189.8z M-189.8,367.9V380h-1.1v-12.1H-189.8z
	 M-189.8,351.7v12.1h-1.1v-12.1H-189.8z M-189.8,335.5v12.1h-1.1v-12.1H-189.8z M-189.8,319.3v12.1h-1.1v-12.1H-189.8z
	 M-189.8,303.1v12.1h-1.1v-12.1H-189.8z M-189.8,286.9v12.1h-1.1v-12.1H-189.8z M-189.8,270.8v12.1h-1.1v-12.1H-189.8z
	 M-189.8,254.6v12.1h-1.1v-12.1H-189.8z M-189.8,238.4v12.1h-1.1v-12.1H-189.8z M-189.8,222.2v12.1h-1.1v-12.1H-189.8z M-189.8,206
	v12.1h-1.1V206H-189.8z M-189.8,189.8v12.1h-1.1v-12.1H-189.8z M-189.8,173.6v12.1h-1.1v-12.1H-189.8z M-189.8,157.4v12.1h-1.1
	v-12.1H-189.8z M-189.8,141.2v12.1h-1.1v-12.1H-189.8z M-189.8,125v12.1h-1.1V125H-189.8z M-189.1,109c-0.8,3.9-0.7,8-0.7,12h-1.1
	c0-4,0-8.2,0.7-12.2L-189.1,109z M-184.1,93.8c-0.9,1.8-1.8,3.6-2.4,5.5c-0.8,1.9-1.3,3.8-1.8,5.7l-1.1-0.3c0.5-2,1-4,1.8-5.9
	c0.6-2,1.6-3.8,2.5-5.6L-184.1,93.8z M-106.4,75.9c1.7,1.2,3.1,2.7,4.6,4l-0.8,0.8c-1.5-1.3-2.9-2.8-4.5-3.9
	c-1.6-1.2-3.2-2.4-4.9-3.4l0.6-1C-109.7,73.4-108,74.7-106.4,75.9z M-115,70.4l-0.5,1c-3.6-1.8-7.4-3.2-11.3-4.1l0.3-1.1
	C-122.5,67.2-118.7,68.6-115,70.4z M-130.5,65.5l-0.2,1.1c-3.9-0.7-8-0.7-12-0.4l-0.1-1.1C-138.7,64.8-134.6,64.8-130.5,65.5z
	 M-158.6,68.8c1.9-0.6,3.8-1.5,5.8-2c2-0.5,4-1.1,6-1.3l0.2,1.1c-2,0.2-3.9,0.8-5.9,1.3c-2,0.4-3.8,1.3-5.7,1.9L-158.6,68.8z
	 M-172.5,77.4c3.1-2.6,6.5-5,10.2-6.8l0.5,1c-3.6,1.8-6.9,4.1-10,6.6L-172.5,77.4z M-182.1,90.4l-1-0.6c2.1-3.5,4.8-6.7,7.6-9.6
	l0.8,0.8C-177.5,83.8-180.1,86.9-182.1,90.4z M-99.8,83.7l0.8-0.7c2.7,3.1,5,6.5,6.9,10.1l-1,0.5C-94.9,90-97.2,86.7-99.8,83.7z
	 M-91.3,97.1l1-0.4c1.5,3.8,2.8,7.7,3.4,11.8l-1.1,0.2C-88.6,104.7-89.9,100.9-91.3,97.1z M-87.2,124.7v-6.1c0-2-0.2-4-0.2-6
	l1.1-0.1c0.1,2,0.3,4.1,0.2,6.1v6.1H-87.2z M-87.2,140.9v-12.1h1.1v12.1H-87.2z M-87.2,157.1v-12.1h1.1v12.1H-87.2z M-87.2,173.3
	v-12.1h1.1v12.1H-87.2z M-87.2,189.5v-12.1h1.1v12.1H-87.2z M-87.2,205.7v-12.1h1.1v12.1H-87.2z M-87.2,221.9v-12.1h1.1v12.1H-87.2z
	 M-87.2,238v-12.1h1.1V238H-87.2z M-87.2,254.2v-12.1h1.1v12.1H-87.2z M-87.2,270.4v-12.1h1.1v12.1H-87.2z M-87.2,286.6v-12.1h1.1
	v12.1H-87.2z M-87.2,302.8v-12.1h1.1v12.1H-87.2z M-87.2,319v-12.1h1.1V319H-87.2z M-87.2,335.2V323h1.1v12.1H-87.2z M-87.2,351.4
	v-12.1h1.1v12.1H-87.2z M-87.2,361.5v-6.1h1.1v6.1c0.1,2,0.1,4,0.4,6l-1.1,0.1C-87.1,365.6-87.1,363.5-87.2,361.5z M-86.2,371.7
	l1.1-0.2c0.8,3.9,2,7.8,3.7,11.4l-1,0.5C-84.2,379.6-85.4,375.7-86.2,371.7z M-80.6,387l1-0.5c2,3.4,4.3,6.8,7,9.7l-0.8,0.8
	C-76.3,393.9-78.6,390.5-80.6,387z M-41.4,413.5l0.1-1.1c4,0.5,8,0.5,12,0.2l0.1,1.1C-33.3,414-37.4,414-41.4,413.5z M-13.5,409.4
	c-1.8,0.9-3.8,1.5-5.7,2.2c-2,0.5-3.9,1.1-6,1.4l-0.2-1.1c2-0.3,3.9-0.9,5.8-1.4c1.9-0.7,3.8-1.3,5.6-2.2L-13.5,409.4z M-45.3,411.8
	l-0.2,1.1c-4-0.9-7.9-2.1-11.6-3.9l0.5-1C-53,409.7-49.1,410.8-45.3,411.8z M0.2,400.5c-3,2.8-6.4,5-10,7.1l-0.5-1
	c3.4-2,6.8-4.2,9.8-7L0.2,400.5z M-65.2,402.8c1.6,1.3,3.3,2.2,5,3.3l-0.6,1c-1.7-1.1-3.5-2.1-5.1-3.4c-1.7-1.2-3.2-2.5-4.7-3.9
	l0.8-0.8C-68.3,400.4-66.8,401.7-65.2,402.8z M10.5,387.9c-2,3.6-4.5,6.8-7.4,9.8l-0.8-0.8c2.8-2.9,5.2-6.1,7.2-9.6L10.5,387.9z
	 M16.4,372.7c-0.6,2-0.9,4-1.7,5.9c-0.7,1.9-1.4,3.9-2.3,5.7l-1-0.5c0.9-1.8,1.6-3.7,2.3-5.5c0.8-1.8,1.1-3.9,1.6-5.8L16.4,372.7z
	 M17.6,356.5c0,4,0,8.1-0.5,12.2l-1.1-0.2c0.6-4,0.5-8,0.5-12H17.6z M17.6,340.3v12.1h-1.1v-12.1H17.6z M17.6,324.1v12.1h-1.1v-12.1
	H17.6z M17.6,307.9v12.1h-1.1v-12.1H17.6z M17.6,291.7v12.1h-1.1v-12.1H17.6z M17.6,275.5v12.1h-1.1v-12.1H17.6z M17.6,259.3v12.1
	h-1.1v-12.1H17.6z M17.6,243.1v12.1h-1.1v-12.1H17.6z M17.6,227v12.1h-1.1V227H17.6z M17.6,210.8v12.1h-1.1v-12.1H17.6z M17.6,194.6
	v12.1h-1.1v-12.1H17.6z M17.6,178.4v12.1h-1.1v-12.1H17.6z M17.6,162.2v12.1h-1.1v-12.1H17.6z M17.6,146v12.1h-1.1V146H17.6z
	 M17.6,129.8V142h-1.1v-12.1H17.6z M17.6,113.6v12.1h-1.1v-12.1H17.6z M17.6,97.4v12.1h-1.1V97.4H17.6z M17.6,81.2v12.1h-1.1V81.2
	H17.6z M17.6,65v12.1h-1.1V65H17.6z M17.6,48.9V61h-1.1V48.9H17.6z M17.6,32.4v12.1h-1.1V32.4H17.6z M17.6,16.2v12.1h-1.1V16.2H17.6
	z M17.6,0v12.1h-1.1V0H17.6z M17.6-16.2V-4h-1.1v-12.1H17.6z M17.6-32.4v12.1h-1.1v-12.1H17.6z M17.6-48.6v12.1h-1.1v-12.1H17.6z
	 M17.6-64.8v12.1h-1.1v-12.1H17.6z M17.6-81v12.1h-1.1V-81H17.6z M17.6-97.1V-85h-1.1v-12.1H17.6z M17.6-113.3v12.1h-1.1v-12.1H17.6
	z M17.6-129.5v12.1h-1.1v-12.1H17.6z M17.6-145.7v12.1h-1.1v-12.1H17.6z M17.6-161.9v12.1h-1.1v-12.1H17.6z M17.6-178.1v12.1h-1.1
	v-12.1H17.6z M17.6-194.3v12.1h-1.1v-12.1H17.6z M17.6-198.3h-1.1v-12.1h1.1V-198.3z"/>
<g>
	<rect x="-190.9" y="141.2" fill="#434445" width="1.1" height="12.1"/>
	<rect x="-190.9" y="157.4" fill="#434445" width="1.1" height="12.1"/>
	<rect x="-190.9" y="189.8" fill="#434445" width="1.1" height="12.1"/>
	<rect x="-190.9" y="173.6" fill="#434445" width="1.1" height="12.1"/>
	<path fill="#434445" d="M-190.2,108.8c-0.8,4-0.7,8.2-0.7,12.2h1.1c0-4.1,0-8.1,0.7-12L-190.2,108.8z"/>
	<rect x="-190.9" y="125" fill="#434445" width="1.1" height="12.1"/>
	<rect x="-190.9" y="206" fill="#434445" width="1.1" height="12.1"/>
	<rect x="-190.9" y="254.6" fill="#434445" width="1.1" height="12.1"/>
	<rect x="-190.9" y="270.8" fill="#434445" width="1.1" height="12.1"/>
	<rect x="-190.9" y="286.9" fill="#434445" width="1.1" height="12.1"/>
	<rect x="-190.9" y="222.2" fill="#434445" width="1.1" height="12.1"/>
	<rect x="-190.9" y="238.4" fill="#434445" width="1.1" height="12.1"/>
	<path fill="#434445" d="M-184.1,93.8l-1-0.5c-0.9,1.8-1.8,3.7-2.5,5.6c-0.8,1.9-1.3,3.9-1.8,5.9l1.1,0.3c0.4-2,1-3.9,1.8-5.7
		C-185.9,97.4-185,95.6-184.1,93.8z"/>
	<rect x="-87.2" y="128.8" fill="#434445" width="1.1" height="12.1"/>
	<path fill="#434445" d="M-101.8,79.9c-1.6-1.3-2.9-2.9-4.6-4c-1.6-1.2-3.3-2.5-5.1-3.5l-0.6,1c1.8,1,3.4,2.2,4.9,3.4
		c1.7,1.1,3,2.6,4.5,3.9L-101.8,79.9z"/>
	<rect x="-87.2" y="144.9" fill="#434445" width="1.1" height="12.1"/>
	<path fill="#434445" d="M-87.2,124.7h1.1v-6.1c0-2-0.2-4.1-0.2-6.1l-1.1,0.1c0.1,2,0.3,4,0.2,6V124.7z"/>
	<rect x="-87.2" y="161.1" fill="#434445" width="1.1" height="12.1"/>
	<rect x="-87.2" y="177.3" fill="#434445" width="1.1" height="12.1"/>
	<path fill="#434445" d="M-86.9,108.5c-0.6-4-1.9-8-3.4-11.8l-1,0.4c1.5,3.7,2.7,7.5,3.3,11.5L-86.9,108.5z"/>
	<rect x="-190.9" y="303.1" fill="#434445" width="1.1" height="12.1"/>
	<path fill="#434445" d="M-92.1,93c-1.9-3.6-4.2-7-6.9-10.1l-0.8,0.7c2.7,3,4.9,6.4,6.8,9.9L-92.1,93z"/>
	<path fill="#434445" d="M-130.5,65.5c-4-0.7-8.2-0.7-12.2-0.5l0.1,1.1c4-0.3,8-0.2,12,0.4L-130.5,65.5z"/>
	<path fill="#434445" d="M-115,70.4c-3.6-1.9-7.5-3.2-11.5-4.2l-0.3,1.1c3.9,0.9,7.7,2.2,11.3,4.1L-115,70.4z"/>
	<path fill="#434445" d="M-158.6,68.8l0.4,1c1.9-0.6,3.7-1.5,5.7-1.9c1.9-0.5,3.9-1.1,5.9-1.3l-0.2-1.1c-2,0.2-4,0.8-6,1.3
		C-154.8,67.3-156.7,68.2-158.6,68.8z"/>
	<path fill="#434445" d="M-171.8,78.2c3.1-2.6,6.4-4.9,10-6.6l-0.5-1c-3.7,1.8-7.1,4.2-10.2,6.8L-171.8,78.2z"/>
	<path fill="#434445" d="M-182.1,90.4c2-3.5,4.7-6.5,7.4-9.4l-0.8-0.8c-2.8,3-5.5,6.1-7.6,9.6L-182.1,90.4z"/>
	<rect x="-190.9" y="627.7" fill="#434445" width="1.1" height="12.1"/>
	<rect x="-87.2" y="193.5" fill="#434445" width="1.1" height="12.1"/>
	<rect x="-190.9" y="611.5" fill="#434445" width="1.1" height="12.1"/>
	<rect x="-190.9" y="546.8" fill="#434445" width="1.1" height="12.1"/>
	<rect x="-190.9" y="643.9" fill="#434445" width="1.1" height="12.1"/>
	<rect x="-190.9" y="579.1" fill="#434445" width="1.1" height="12.1"/>
	<rect x="-190.9" y="562.9" fill="#434445" width="1.1" height="12.1"/>
	<rect x="-190.9" y="660.1" fill="#434445" width="1.1" height="12.1"/>
	<path fill="#434445" d="M0-286.1v646.7c0,2-0.2,2.9-0.2,4.4c-0.4,2.7-0.8,5.4-1.8,7.9c-3.4,10.3-12.2,18.7-22.5,21.9
		c-10.4,3.1-22.3,1.4-31-5.2c-8.9-6.4-14.2-17.1-14.2-28V118.6c0.7-20.6-9.6-42.9-26.7-55.8c-17-13.4-40.3-17.9-61.1-11.9
		c-20.8,5.8-38.4,21.9-45.7,42.2c-2,5-3.1,10.3-3.8,15.7c-0.4,2.7-0.4,5.4-0.5,8c0,2.2,0,4.1,0,6.2v588.9h1.1V123c0-2.1,0-4,0-6.2
		c0.2-2.6,0.1-5.3,0.5-7.9c0.7-5.2,1.8-10.5,3.8-15.4c7.2-20,24.5-35.8,45-41.5c20.4-5.9,43.4-1.5,60.1,11.7
		c16.8,12.6,26.9,34.5,26.2,54.9v242.9c0,11.3,5.5,22.3,14.7,28.9c8.9,6.9,21.3,8.6,32,5.4c10.7-3.3,19.7-12,23.2-22.6
		c1-2.6,1.5-5.4,1.8-8.2c0-1.5,0.2-2.5,0.2-4.5v-646.7v-4.7H0V-286.1z"/>
	<rect x="-190.9" y="676.3" fill="#434445" width="1.1" height="12.1"/>
	<rect x="-190.9" y="692.5" fill="#434445" width="1.1" height="12.1"/>
	<path fill="#434445" d="M33,360.5c0,2-0.2,5.1-0.3,7.6c-0.6,5.3-1.6,10.5-3.4,15.5c-6.8,20.2-23.6,36.3-43.9,42.7
		C-34.8,432.5-58,429-75,416.1c-17.2-12.4-27.7-33.4-27.6-54.6V118.6c0.3-12.1-5-22.7-13.9-29.7c-8.8-7-21-9.3-31.8-6.2
		c-10.7,3-20.1,11.4-23.8,22c-1.1,2.6-1.6,5.4-2,8.1c-0.2,1.4-0.1,2.8-0.3,4.2c0,1.8,0,4,0,6v588.9h1.1V123c0-2,0-4.2,0-6
		c0.1-1.4,0-2.7,0.3-4.1c0.4-2.7,0.9-5.4,1.9-7.9c3.6-10.2,12.7-18.4,23.1-21.3c10.5-3,22.3-0.8,30.8,6c8.7,6.9,13.8,17,13.5,28.8
		v242.9c-0.1,21.5,10.6,42.9,28.1,55.5c17.3,13.1,40.8,16.7,61.4,10.4c20.6-6.4,37.7-22.9,44.6-43.4c1.8-5.1,2.9-10.4,3.5-15.7
		c0.1-2.5,0.3-5.7,0.3-7.7v-646.7v-4.7H33v4.7V360.5z"/>
	<rect x="-190.9" y="514.4" fill="#434445" width="1.1" height="12.1"/>
	<rect x="-190.9" y="384.1" fill="#434445" width="1.1" height="12.1"/>
	<rect x="-190.9" y="416.5" fill="#434445" width="1.1" height="12.1"/>
	<rect x="-190.9" y="367.9" fill="#434445" width="1.1" height="12.1"/>
	<rect x="-190.9" y="400.3" fill="#434445" width="1.1" height="12.1"/>
	<rect x="-190.9" y="335.5" fill="#434445" width="1.1" height="12.1"/>
	<rect x="-190.9" y="530.6" fill="#434445" width="1.1" height="12.1"/>
	<rect x="-190.9" y="351.7" fill="#434445" width="1.1" height="12.1"/>
	<rect x="-190.9" y="498.2" fill="#434445" width="1.1" height="12.1"/>
	<rect x="-190.9" y="319.3" fill="#434445" width="1.1" height="12.1"/>
	<rect x="-190.9" y="433.4" fill="#434445" width="1.1" height="12.1"/>
	<rect x="-190.9" y="482" fill="#434445" width="1.1" height="12.1"/>
	<rect x="-190.9" y="449.6" fill="#434445" width="1.1" height="12.1"/>
	<rect x="-190.9" y="465.8" fill="#434445" width="1.1" height="12.1"/>
	<rect x="-190.9" y="595.3" fill="#434445" width="1.1" height="12.1"/>
	<rect x="16.5" y="48.9" fill="#434445" width="1.1" height="12.1"/>
	<rect x="16.5" y="97.4" fill="#434445" width="1.1" height="12.1"/>
	<rect x="16.5" y="81.2" fill="#434445" width="1.1" height="12.1"/>
	<rect x="16.5" y="65" fill="#434445" width="1.1" height="12.1"/>
	<rect x="16.5" y="16.2" fill="#434445" width="1.1" height="12.1"/>
	<rect x="16.5" y="32.4" fill="#434445" width="1.1" height="12.1"/>
	<rect x="16.5" y="162.2" fill="#434445" width="1.1" height="12.1"/>
	<rect x="16.5" fill="#434445" width="1.1" height="12.1"/>
	<rect x="16.5" y="178.4" fill="#434445" width="1.1" height="12.1"/>
	<rect x="16.5" y="113.6" fill="#434445" width="1.1" height="12.1"/>
	<rect x="16.5" y="194.6" fill="#434445" width="1.1" height="12.1"/>
	<rect x="16.5" y="129.8" fill="#434445" width="1.1" height="12.1"/>
	<rect x="16.5" y="146" fill="#434445" width="1.1" height="12.1"/>
	<rect x="16.5" y="-161.9" fill="#434445" width="1.1" height="12.1"/>
	<rect x="16.5" y="-178.1" fill="#434445" width="1.1" height="12.1"/>
	<rect x="-87.2" y="209.7" fill="#434445" width="1.1" height="12.1"/>
	<rect x="16.5" y="-145.7" fill="#434445" width="1.1" height="12.1"/>
	<rect x="16.5" y="-194.3" fill="#434445" width="1.1" height="12.1"/>
	<rect x="16.5" y="-129.5" fill="#434445" width="1.1" height="12.1"/>
	<rect x="16.5" y="-210.5" fill="#434445" width="1.1" height="12.1"/>
	<rect x="16.5" y="210.8" fill="#434445" width="1.1" height="12.1"/>
	<rect x="16.5" y="-113.3" fill="#434445" width="1.1" height="12.1"/>
	<rect x="16.5" y="-48.6" fill="#434445" width="1.1" height="12.1"/>
	<rect x="16.5" y="-32.4" fill="#434445" width="1.1" height="12.1"/>
	<rect x="16.5" y="-64.8" fill="#434445" width="1.1" height="12.1"/>
	<rect x="16.5" y="-97.1" fill="#434445" width="1.1" height="12.1"/>
	<rect x="16.5" y="-81" fill="#434445" width="1.1" height="12.1"/>
	<rect x="16.5" y="-16.2" fill="#434445" width="1.1" height="12.1"/>
	<path fill="#434445" d="M-86.8,367.6l1.1-0.1c-0.2-2-0.2-4-0.4-6v-6.1h-1.1v6.1C-87.1,363.5-87.1,365.6-86.8,367.6z"/>
	<path fill="#434445" d="M-81.4,382.8c-1.7-3.6-2.9-7.5-3.7-11.4l-1.1,0.2c0.9,4,2,7.9,3.8,11.6L-81.4,382.8z"/>
	<rect x="-87.2" y="339.2" fill="#434445" width="1.1" height="12.1"/>
	<path fill="#434445" d="M-41.4,413.5c4.1,0.5,8.2,0.5,12.2,0.2l-0.1-1.1c-4,0.3-8,0.4-12-0.2L-41.4,413.5z"/>
	<rect x="-87.2" y="323" fill="#434445" width="1.1" height="12.1"/>
	<path fill="#434445" d="M-72.6,396.1c-2.8-2.9-5-6.3-7-9.7l-1,0.5c2.1,3.5,4.3,7,7.2,9.9L-72.6,396.1z"/>
	<path fill="#434445" d="M-13.5,409.4l-0.5-1c-1.8,0.9-3.7,1.4-5.6,2.2c-1.9,0.5-3.9,1.1-5.8,1.4l0.2,1.1c2-0.3,4-1,6-1.4
		C-17.3,410.9-15.3,410.3-13.5,409.4z"/>
	<rect x="-87.2" y="242.1" fill="#434445" width="1.1" height="12.1"/>
	<rect x="-87.2" y="225.9" fill="#434445" width="1.1" height="12.1"/>
	<rect x="-87.2" y="258.3" fill="#434445" width="1.1" height="12.1"/>
	<rect x="-87.2" y="306.9" fill="#434445" width="1.1" height="12.1"/>
	<rect x="-87.2" y="290.7" fill="#434445" width="1.1" height="12.1"/>
	<rect x="-87.2" y="274.5" fill="#434445" width="1.1" height="12.1"/>
	<rect x="16.5" y="275.5" fill="#434445" width="1.1" height="12.1"/>
	<path fill="#434445" d="M-57.1,408.9c3.7,1.8,7.6,3,11.6,3.9l0.2-1.1c-3.9-0.9-7.8-2.1-11.3-3.8L-57.1,408.9z"/>
	<rect x="16.5" y="227" fill="#434445" width="1.1" height="12.1"/>
	<rect x="16.5" y="307.9" fill="#434445" width="1.1" height="12.1"/>
	<rect x="16.5" y="291.7" fill="#434445" width="1.1" height="12.1"/>
	<rect x="16.5" y="243.1" fill="#434445" width="1.1" height="12.1"/>
	<rect x="16.5" y="259.3" fill="#434445" width="1.1" height="12.1"/>
	<rect x="16.5" y="324.1" fill="#434445" width="1.1" height="12.1"/>
	<path fill="#434445" d="M-70.6,399.8c1.5,1.4,3,2.7,4.7,3.9c1.6,1.3,3.4,2.3,5.1,3.4l0.6-1c-1.7-1-3.5-2-5-3.3
		c-1.6-1.1-3.2-2.5-4.6-3.8L-70.6,399.8z"/>
	<path fill="#434445" d="M-9.8,407.6c3.5-2.1,7-4.3,10-7.1l-0.8-0.8c-2.9,2.7-6.3,4.9-9.8,7L-9.8,407.6z"/>
	<path fill="#434445" d="M2.3,396.9l0.8,0.8c2.8-3,5.3-6.2,7.4-9.8l-1-0.6C7.5,390.8,5.1,394,2.3,396.9z"/>
	<path fill="#434445" d="M17.6,356.5h-1.1c0,4.1,0,8.1-0.5,12l1.1,0.2C17.7,364.6,17.6,360.5,17.6,356.5z"/>
	<path fill="#434445" d="M16.4,372.7l-1.1-0.2c-0.6,1.9-0.9,3.9-1.6,5.8c-0.7,1.9-1.4,3.8-2.3,5.5l1,0.5c1-1.8,1.7-3.7,2.3-5.7
		C15.5,376.7,15.8,374.7,16.4,372.7z"/>
	<rect x="16.5" y="340.3" fill="#434445" width="1.1" height="12.1"/>
</g>
<rect id="_x3C_Slice_x3E_" x="-217" y="57.6" fill="none" width="9" height="124"/>
</svg>
